# xmcd
#
# Track frame offsets:
#	150
#	16452
#	30468
#	47429
#	62535
#	79078
#	100442
#	112570
#	129155
#	146263
#	163446
#	179425
#	193454
#	207635
#	221492
#
# Disc length: 3148 seconds
#
# Revision: 0
# Processed by: cddbd v1.5.2PL0 Copyright (c) Steve Scherf et al.
# Submitted via: EasyCDDAExtractor 16.0.6.1
#
DISCID=d00c4a0f
DTITLE=Καζαντζίδης Στέλιος - Καζαντζίδης Στέλιος 3
DYEAR=2011
DGENRE=Λαϊκή
TTITLE0=Καζαντζίδης Στέλιος - Της γερακίνας γιός [Β. Τσιτσάνης-Κ. Βίρβος]
TTITLE1=Καζαντζίδης Στέλιος - Το αγριολούλουδο [Χ. Νικολόπουλος-Πυθαγόρας]
TTITLE2=Καζαντζίδης Στέλιος - Έϊ, καπετάνιε [Τ. Σούκας-Σ. Τσώτου]
TTITLE3=Καζαντζίδης Στέλιος - Πλήγωσέ με όσο θέλεις [Πρόδρομος Τσαουσάκης]
TTITLE4=Καζαντζίδης Στέλιος - Έφυγες φίλε [Τ. Σούκας-Σ. Τσώτου]
TTITLE5=Καζαντζίδης Στέλιος - Είμ' ένα κορμί χαμένο [Α. Καλδάρας-Κ. Βίρβος]
TTITLE6=Καζαντζίδης Στέλιος - Γυρεύω μιά καρδιά [Χ, Νικολόπουλος-Τασ. Θωμαΐδου
TTITLE6=]
TTITLE7=Καζαντζίδης Στέλιος - Εσύ μονάχα λείπεις [Τ. Σούκας-Λ. Χαψιάδης]
TTITLE8=Καζαντζίδης Στέλιος - Κι αν γελάω είναι ψέμα [Σ. Καζαντζίδης-Βαγγ. Ατρ
TTITLE8=αΐδης]
TTITLE9=Καζαντζίδης Στέλιος - Δε συγχωρώ [Χ. Νικολόπουλος-Σ. Τσώτου]
TTITLE10=Καζαντζίδης Στέλιος - Μακάρι [Τ. Σούκας-Σ. Τσώτου]
TTITLE11=Καζαντζίδης Στέλιος - Απ' τα ψηλά στα χαμηλά [Α. Καλδάρας-Ε. Παπαγιαν
TTITLE11=νοπούλου]
TTITLE12=Καζαντζίδης Στέλιος-Μαρινέλλα - Είσαι η ζωή μου [Στέλιος Καζαντζίδης]
TTITLE13=Καζαντζίδης Στέλιος-Μαρινέλλα - Δυό πόρτες έχει η ζωή [Στέλιος Καζαντ
TTITLE13=ζίδης]
TTITLE14=Καζαντζίδης Στέλιος - Ένοχο χρήμα, ένοχο [Σ. Καζαντζίδης-Ε. Παπαγιανν
TTITLE14=οπούλου]
EXTD=
EXTT0=
EXTT1=
EXTT2=
EXTT3=
EXTT4=
EXTT5=
EXTT6=
EXTT7=
EXTT8=
EXTT9=
EXTT10=
EXTT11=
EXTT12=
EXTT13=
EXTT14=
PLAYORDER=
